<?xml version="1.0" encoding="utf-8"?>
<!-- Generator: Adobe Illustrator 16.0.0, SVG Export Plug-In . SVG Version: 6.00 Build 0)  -->
<!DOCTYPE svg PUBLIC "-//W3C//DTD SVG 1.1//EN" "http://www.w3.org/Graphics/SVG/1.1/DTD/svg11.dtd">
<svg version="1.1" id="Layer_1" xmlns="http://www.w3.org/2000/svg" xmlns:xlink="http://www.w3.org/1999/xlink" x="0px" y="0px"
	 width="252.4px" height="121.027px" viewBox="0 0 252.4 121.027" enable-background="new 0 0 252.4 121.027" xml:space="preserve">
<g>
	<path fill="#FFFFFF" d="M190.48,1.301c-15.855,0-31.15,6.434-42.249,17.751H14.948c-6.74,0-12.231,5.474-12.231,12.234v58.421
		c0,6.754,5.491,12.233,12.231,12.233h133.246c11.095,11.324,26.411,17.779,42.287,17.779c32.643,0,59.207-26.563,59.207-59.214
		C249.688,27.857,223.123,1.301,190.48,1.301"/>
	<path fill="#57275E" d="M173.721,60.493c0,10.037,8.139,18.175,18.176,18.175c10.036,0,18.168-8.14,18.168-18.175
		c0-10.037-8.132-18.168-18.168-18.168C181.859,42.325,173.721,50.456,173.721,60.493"/>
	<path fill="#57275E" d="M191.882,3.985c31.228,0,56.525,25.306,56.525,56.521c0,31.218-25.298,56.529-56.525,56.529
		c-16.404,0-31.179-6.998-41.501-18.183H12.503c-4.706,0-8.51-3.805-8.51-8.514V30.633c0-4.702,3.805-8.514,8.51-8.514h137.906
		C160.734,10.969,175.494,3.985,191.882,3.985 M191.374,0c-16.015,0.139-31.439,6.698-42.666,18.134H12.503
		C5.606,18.134,0,23.732,0,30.633V90.34c0,6.906,5.606,12.506,12.503,12.506H148.67c11.342,11.574,26.991,18.182,43.212,18.182
		c33.38,0,60.519-27.153,60.519-60.521c0-33.282-27.005-60.375-60.277-60.507H191.374z"/>
	<path fill="#57275E" d="M191.882,10.016c-15.618,0-29.586,7.104-38.851,18.238H18.179c-4.455,0-8.076,3.617-8.076,8.09v48.383
		c0,4.459,3.621,8.076,8.076,8.076h134.922c9.262,11.1,23.201,18.182,38.781,18.182c27.875,0,50.487-22.604,50.487-50.499
		C242.369,32.602,219.757,10.016,191.882,10.016 M60.086,73.772c-1.843,1.802-3.592,2.929-10.193,2.929H36.239V44.446H51.91
		c7.908,0,9.936,4.933,9.936,8.258c0,4.617-2.618,5.926-3.961,6.606c3.961,1.468,4.991,4.633,4.991,7.825
		C62.876,69.688,61.805,72.102,60.086,73.772z M92.416,76.7l-9.978-14.168l-3.151,3.239V76.7h-6.732V44.446h6.732v13.111
		l12.312-13.111h8.709L87.154,57.648L101.079,76.7H92.416z M128.871,76.7l-9.964-14.168l-3.155,3.239V76.7h-6.732V44.446h6.732
		v13.111l12.319-13.111h8.708l-13.163,13.202L137.545,76.7H128.871z M191.893,86.75c-14.503,0-26.251-11.748-26.251-26.265
		c0-14.495,11.748-26.235,26.251-26.235c14.485,0,26.24,11.74,26.24,26.235C218.133,75.002,206.378,86.75,191.893,86.75z"/>
	<path fill="#57275E" d="M55.374,53.468c0-2.649-1.892-3.464-4.952-3.464h-7.714v7.066h7.901
		C53.249,57.071,55.374,56.035,55.374,53.468"/>
	<path fill="#57275E" d="M51.284,62.504h-8.58v8.617h8.264c3.279,0,5.168-1.435,5.168-4.718
		C56.136,63.575,53.705,62.504,51.284,62.504"/>
</g>
</svg>
